<svg xmlns="http://www.w3.org/2000/svg" xmlns:xlink="http://www.w3.org/1999/xlink" width="1000" height="100" version="1.1" viewBox="0 0 1000 100"><defs><rect id="path-1" width="1000" height="100" x="0" y="0"/></defs><g id="Page-2" fill="none" fill-rule="evenodd" stroke="none" stroke-width="1"><g id="Rectangle-+-[-+-]-+-‟-+-*-Mask"><mask id="mask-2" fill="#fff"><use xlink:href="#path-1"/></mask><use id="Mask" fill="#CCCACF" xlink:href="#path-1"/><rect id="Rectangle" width="999" height="99" x=".5" y=".5" fill="#793AE8" stroke="#979797" mask="url(#mask-2)"/><text id="[" fill="#FE0162" font-family="SourceCodePro-Regular, Source Code Pro" font-size="300" font-weight="normal" mask="url(#mask-2)"><tspan x="-9" y="38">[</tspan></text><text id="]" fill="#FE0162" font-family="SourceCodePro-Regular, Source Code Pro" font-size="300" font-weight="normal" mask="url(#mask-2)"><tspan x="601" y="38">]</tspan></text><path id="‟" fill="#4BF0E3" d="M283,60 C274.231535,58.8164324 266.807925,55.6726283 260.728947,50.5684932 C254.64997,45.464358 249.842123,39.3246934 246.305263,32.1493151 C242.768403,24.9739367 241,17.280863 241,9.06986301 C241,-0.250731534 243.247346,-7.59243894 247.742105,-12.9554795 C252.236865,-18.31852 257.578916,-21 263.768421,-21 C268.557919,-21 272.757877,-19.2431683 276.368421,-15.7294521 C279.978965,-12.2157359 281.784211,-7.8698889 281.784211,-2.69178082 C281.784211,1.67262456 280.163174,5.79655592 276.921053,9.68013699 C273.678931,13.563718 268.631613,15.5054795 261.778947,15.5054795 C261.778947,21.2753713 262.607886,26.1760072 264.265789,30.2075342 C265.923693,34.2390613 268.134197,37.5493021 270.897368,40.1383562 C273.66054,42.7274102 277.69471,44.7246505 283,46.130137 L283,60 Z M229,60 C220.231535,58.8164324 212.807925,55.6726283 206.728947,50.5684932 C200.64997,45.464358 195.842123,39.3246934 192.305263,32.1493151 C188.768403,24.9739367 187,17.280863 187,9.06986301 C187,-0.250731534 189.247346,-7.59243894 193.742105,-12.9554795 C198.236865,-18.31852 203.615758,-21 209.878947,-21 C214.668445,-21 218.849982,-19.2431683 222.423684,-15.7294521 C225.997386,-12.2157359 227.784211,-7.8698889 227.784211,-2.69178082 C227.784211,1.67262456 226.163174,5.79655592 222.921053,9.68013699 C219.678931,13.563718 214.631613,15.5054795 207.778947,15.5054795 C207.778947,21.2753713 208.607886,26.1760072 210.265789,30.2075342 C211.923692,34.2390613 214.152618,37.5493021 216.952632,40.1383562 C219.752646,42.7274102 223.768395,44.7246505 229,46.130137 L229,60 Z" mask="url(#mask-2)" transform="translate(235.000000, 19.500000) scale(1, -1) translate(-235.000000, -19.500000)"/><polygon id="*" fill="#F11D91" points="929.069 86.549 931.025 54.565 904.663 72.078 896 57.146 924.597 43.32 896 29.31 904.663 14.655 931.025 32.076 929.069 0 946.581 0 944.159 32.076 971.08 14.655 979.836 29.31 951.145 43.32 979.836 57.146 971.08 72.078 944.159 54.565 946.581 86.549" mask="url(#mask-2)"/></g></g></svg>